<svg width="8" height="4" viewBox="0 0 8 4" fill="none" xmlns="http://www.w3.org/2000/svg">
<path d="M1.93137 4C1.32555 4 1.02265 4 0.882383 3.8802C0.760678 3.77626 0.696091 3.62033 0.708648 3.46077C0.723121 3.27688 0.937309 3.06269 1.36569 2.63431L3.43431 0.565685C3.63232 0.367677 3.73133 0.268673 3.84549 0.231579C3.94591 0.19895 4.05409 0.19895 4.15451 0.231579C4.26867 0.268673 4.36768 0.367677 4.56569 0.565686L6.63432 2.63432C7.06269 3.06269 7.27688 3.27688 7.29135 3.46077C7.30391 3.62033 7.23932 3.77626 7.11762 3.8802C6.97735 4 6.67445 4 6.06863 4H1.93137Z" fill="#6E7076"/>
</svg>
