<svg width="8" height="4" viewBox="0 0 8 4" fill="none" xmlns="http://www.w3.org/2000/svg">
<path d="M1.93137 0C1.32555 0 1.02265 0 0.882383 0.119797C0.760678 0.223743 0.696091 0.37967 0.708648 0.53923C0.723121 0.723121 0.937309 0.937309 1.36569 1.36569L3.43431 3.43431C3.63232 3.63232 3.73133 3.73133 3.84549 3.76842C3.94591 3.80105 4.05409 3.80105 4.15451 3.76842C4.26867 3.73133 4.36768 3.63232 4.56569 3.43431L6.63432 1.36568C7.06269 0.937309 7.27688 0.723121 7.29135 0.53923C7.30391 0.37967 7.23932 0.223743 7.11762 0.119797C6.97735 0 6.67445 0 6.06863 0H1.93137Z" fill="#6E7076"/>
</svg>
