<svg width="12" height="12" viewBox="0 0 12 12" fill="none" xmlns="http://www.w3.org/2000/svg">
<path d="M6.99607 1.06156C7.0236 0.841308 6.90264 0.629273 6.69903 0.540889C6.49542 0.452505 6.25792 0.50893 6.11582 0.679447L1.65109 6.03712C1.57393 6.12968 1.49578 6.22342 1.43888 6.30581C1.38507 6.38372 1.28681 6.53691 1.28378 6.73823C1.2803 6.96872 1.38301 7.188 1.56229 7.33288C1.7189 7.45943 1.89949 7.48202 1.99379 7.49056C2.0935 7.49959 2.21554 7.49957 2.33604 7.49954L5.43354 7.49954L5.00379 10.9375C4.97626 11.1578 5.09723 11.3698 5.30083 11.4582C5.50444 11.5466 5.74194 11.4901 5.88404 11.3196L10.3488 5.96196C10.4259 5.8694 10.5041 5.77566 10.561 5.69327C10.6148 5.61536 10.713 5.46218 10.7161 5.26085C10.7196 5.03036 10.6169 4.81108 10.4376 4.6662C10.281 4.53965 10.1004 4.51706 10.0061 4.50852C9.90636 4.49949 9.78431 4.49952 9.66381 4.49954L6.56632 4.49954L6.99607 1.06156Z" fill="#4E75FF"/>
</svg>
